G04 #@! TF.GenerationSoftware,KiCad,Pcbnew,7.0.11-rc3*
G04 #@! TF.CreationDate,2025-08-13T16:24:40+03:00*
G04 #@! TF.ProjectId,Neonest_V_1.3,4e656f6e-6573-4745-9f56-5f312e332e6b,rev?*
G04 #@! TF.SameCoordinates,Original*
G04 #@! TF.FileFunction,Paste,Top*
G04 #@! TF.FilePolarity,Positive*
%FSLAX46Y46*%
G04 Gerber Fmt 4.6, Leading zero omitted, Abs format (unit mm)*
G04 Created by KiCad (PCBNEW 7.0.11-rc3) date 2025-08-13 16:24:40*
%MOMM*%
%LPD*%
G01*
G04 APERTURE LIST*
G04 Aperture macros list*
%AMRoundRect*
0 Rectangle with rounded corners*
0 $1 Rounding radius*
0 $2 $3 $4 $5 $6 $7 $8 $9 X,Y pos of 4 corners*
0 Add a 4 corners polygon primitive as box body*
4,1,4,$2,$3,$4,$5,$6,$7,$8,$9,$2,$3,0*
0 Add four circle primitives for the rounded corners*
1,1,$1+$1,$2,$3*
1,1,$1+$1,$4,$5*
1,1,$1+$1,$6,$7*
1,1,$1+$1,$8,$9*
0 Add four rect primitives between the rounded corners*
20,1,$1+$1,$2,$3,$4,$5,0*
20,1,$1+$1,$4,$5,$6,$7,0*
20,1,$1+$1,$6,$7,$8,$9,0*
20,1,$1+$1,$8,$9,$2,$3,0*%
G04 Aperture macros list end*
%ADD10RoundRect,0.075000X-0.075000X-0.662500X0.075000X-0.662500X0.075000X0.662500X-0.075000X0.662500X0*%
%ADD11RoundRect,0.075000X-0.662500X-0.075000X0.662500X-0.075000X0.662500X0.075000X-0.662500X0.075000X0*%
%ADD12RoundRect,0.200000X-0.200000X-0.275000X0.200000X-0.275000X0.200000X0.275000X-0.200000X0.275000X0*%
%ADD13RoundRect,0.250000X1.500000X1.000000X-1.500000X1.000000X-1.500000X-1.000000X1.500000X-1.000000X0*%
%ADD14RoundRect,0.225000X-0.225000X-0.250000X0.225000X-0.250000X0.225000X0.250000X-0.225000X0.250000X0*%
%ADD15RoundRect,0.250000X1.000000X0.650000X-1.000000X0.650000X-1.000000X-0.650000X1.000000X-0.650000X0*%
%ADD16RoundRect,0.218750X0.218750X0.256250X-0.218750X0.256250X-0.218750X-0.256250X0.218750X-0.256250X0*%
%ADD17RoundRect,0.200000X0.275000X-0.200000X0.275000X0.200000X-0.275000X0.200000X-0.275000X-0.200000X0*%
%ADD18RoundRect,0.225000X0.250000X-0.225000X0.250000X0.225000X-0.250000X0.225000X-0.250000X-0.225000X0*%
%ADD19RoundRect,0.150000X-0.587500X-0.150000X0.587500X-0.150000X0.587500X0.150000X-0.587500X0.150000X0*%
%ADD20RoundRect,0.200000X-0.275000X0.200000X-0.275000X-0.200000X0.275000X-0.200000X0.275000X0.200000X0*%
%ADD21RoundRect,0.250000X2.050000X0.300000X-2.050000X0.300000X-2.050000X-0.300000X2.050000X-0.300000X0*%
%ADD22RoundRect,0.250000X2.025000X2.375000X-2.025000X2.375000X-2.025000X-2.375000X2.025000X-2.375000X0*%
%ADD23RoundRect,0.225000X-0.250000X0.225000X-0.250000X-0.225000X0.250000X-0.225000X0.250000X0.225000X0*%
%ADD24RoundRect,0.200000X0.200000X0.275000X-0.200000X0.275000X-0.200000X-0.275000X0.200000X-0.275000X0*%
%ADD25R,1.400000X1.800000*%
%ADD26R,1.900000X1.400000*%
%ADD27R,1.500000X0.800000*%
%ADD28RoundRect,0.218750X0.256250X-0.218750X0.256250X0.218750X-0.256250X0.218750X-0.256250X-0.218750X0*%
%ADD29RoundRect,0.225000X0.225000X0.250000X-0.225000X0.250000X-0.225000X-0.250000X0.225000X-0.250000X0*%
%ADD30R,2.000000X1.500000*%
%ADD31R,2.000000X3.800000*%
%ADD32R,5.400000X2.900000*%
%ADD33RoundRect,0.150000X-0.150000X0.587500X-0.150000X-0.587500X0.150000X-0.587500X0.150000X0.587500X0*%
G04 APERTURE END LIST*
D10*
G04 #@! TO.C,U3*
X162820000Y-70907500D03*
X163320000Y-70907500D03*
X163820000Y-70907500D03*
X164320000Y-70907500D03*
X164820000Y-70907500D03*
X165320000Y-70907500D03*
X165820000Y-70907500D03*
X166320000Y-70907500D03*
X166820000Y-70907500D03*
X167320000Y-70907500D03*
X167820000Y-70907500D03*
X168320000Y-70907500D03*
D11*
X169732500Y-72320000D03*
X169732500Y-72820000D03*
X169732500Y-73320000D03*
X169732500Y-73820000D03*
X169732500Y-74320000D03*
X169732500Y-74820000D03*
X169732500Y-75320000D03*
X169732500Y-75820000D03*
X169732500Y-76320000D03*
X169732500Y-76820000D03*
X169732500Y-77320000D03*
X169732500Y-77820000D03*
D10*
X168320000Y-79232500D03*
X167820000Y-79232500D03*
X167320000Y-79232500D03*
X166820000Y-79232500D03*
X166320000Y-79232500D03*
X165820000Y-79232500D03*
X165320000Y-79232500D03*
X164820000Y-79232500D03*
X164320000Y-79232500D03*
X163820000Y-79232500D03*
X163320000Y-79232500D03*
X162820000Y-79232500D03*
D11*
X161407500Y-77820000D03*
X161407500Y-77320000D03*
X161407500Y-76820000D03*
X161407500Y-76320000D03*
X161407500Y-75820000D03*
X161407500Y-75320000D03*
X161407500Y-74820000D03*
X161407500Y-74320000D03*
X161407500Y-73820000D03*
X161407500Y-73320000D03*
X161407500Y-72820000D03*
X161407500Y-72320000D03*
G04 #@! TD*
D12*
G04 #@! TO.C,R1*
X151725000Y-86080000D03*
X153375000Y-86080000D03*
G04 #@! TD*
D13*
G04 #@! TO.C,C8*
X159900000Y-108550000D03*
X153400000Y-108550000D03*
G04 #@! TD*
D14*
G04 #@! TO.C,C27*
X154425000Y-59940000D03*
X155975000Y-59940000D03*
G04 #@! TD*
D13*
G04 #@! TO.C,C3*
X164100000Y-129900000D03*
X157600000Y-129900000D03*
G04 #@! TD*
D12*
G04 #@! TO.C,R3*
X151790000Y-90640000D03*
X153440000Y-90640000D03*
G04 #@! TD*
D15*
G04 #@! TO.C,D3*
X175977500Y-128330000D03*
X171977500Y-128330000D03*
G04 #@! TD*
D16*
G04 #@! TO.C,D4*
X179977500Y-111820000D03*
X178402500Y-111820000D03*
G04 #@! TD*
D17*
G04 #@! TO.C,R16*
X125090000Y-92120000D03*
X125090000Y-90470000D03*
G04 #@! TD*
D18*
G04 #@! TO.C,C17*
X166620000Y-66415000D03*
X166620000Y-64865000D03*
G04 #@! TD*
D17*
G04 #@! TO.C,R10*
X162830000Y-66435000D03*
X162830000Y-64785000D03*
G04 #@! TD*
G04 #@! TO.C,R19*
X125190000Y-110415000D03*
X125190000Y-108765000D03*
G04 #@! TD*
D14*
G04 #@! TO.C,C5*
X155215000Y-92540000D03*
X156765000Y-92540000D03*
G04 #@! TD*
G04 #@! TO.C,C28*
X154405000Y-58310000D03*
X155955000Y-58310000D03*
G04 #@! TD*
D19*
G04 #@! TO.C,Q4*
X127340000Y-106820000D03*
X127340000Y-108720000D03*
X129215000Y-107770000D03*
G04 #@! TD*
D20*
G04 #@! TO.C,R27*
X125125000Y-62585000D03*
X125125000Y-64235000D03*
G04 #@! TD*
D21*
G04 #@! TO.C,U1*
X163975000Y-122700000D03*
X163975000Y-121000000D03*
X163975000Y-119300000D03*
D22*
X157250000Y-122075000D03*
X157250000Y-116525000D03*
X152400000Y-122075000D03*
X152400000Y-116525000D03*
D21*
X163975000Y-117600000D03*
X163975000Y-115900000D03*
G04 #@! TD*
D17*
G04 #@! TO.C,R11*
X168410000Y-66455000D03*
X168410000Y-64805000D03*
G04 #@! TD*
D20*
G04 #@! TO.C,R29*
X150870000Y-64795000D03*
X150870000Y-66445000D03*
G04 #@! TD*
D23*
G04 #@! TO.C,C22*
X156890000Y-64850000D03*
X156890000Y-66400000D03*
G04 #@! TD*
D24*
G04 #@! TO.C,R22*
X128665000Y-104845000D03*
X127015000Y-104845000D03*
G04 #@! TD*
D23*
G04 #@! TO.C,C14*
X172380000Y-81942500D03*
X172380000Y-80392500D03*
G04 #@! TD*
D12*
G04 #@! TO.C,R6*
X154925000Y-81560000D03*
X156575000Y-81560000D03*
G04 #@! TD*
D24*
G04 #@! TO.C,R17*
X128675000Y-86760000D03*
X127025000Y-86760000D03*
G04 #@! TD*
D20*
G04 #@! TO.C,R8*
X174440000Y-86445000D03*
X174440000Y-88095000D03*
G04 #@! TD*
D23*
G04 #@! TO.C,C11*
X151600000Y-101555000D03*
X151600000Y-103105000D03*
G04 #@! TD*
D20*
G04 #@! TO.C,R18*
X125190000Y-105390000D03*
X125190000Y-107040000D03*
G04 #@! TD*
D15*
G04 #@! TO.C,D1*
X125867500Y-132350000D03*
X121867500Y-132350000D03*
G04 #@! TD*
D24*
G04 #@! TO.C,R25*
X128585000Y-61905000D03*
X126935000Y-61905000D03*
G04 #@! TD*
D20*
G04 #@! TO.C,R15*
X125070000Y-87180000D03*
X125070000Y-88830000D03*
G04 #@! TD*
D25*
G04 #@! TO.C,J3*
X163970000Y-105750000D03*
D26*
X177120000Y-107350000D03*
D25*
X163970000Y-100050000D03*
D26*
X178120000Y-94200000D03*
D27*
X174270000Y-106560000D03*
X174270000Y-105460000D03*
X174470000Y-104360000D03*
X174270000Y-103260000D03*
X174470000Y-102160000D03*
X174270000Y-101060000D03*
X173870000Y-99960000D03*
X174270000Y-98860000D03*
G04 #@! TD*
D23*
G04 #@! TO.C,C13*
X174230000Y-81952500D03*
X174230000Y-80402500D03*
G04 #@! TD*
D12*
G04 #@! TO.C,R5*
X151625000Y-81560000D03*
X153275000Y-81560000D03*
G04 #@! TD*
G04 #@! TO.C,R7*
X174980000Y-111790000D03*
X176630000Y-111790000D03*
G04 #@! TD*
D19*
G04 #@! TO.C,Q2*
X127325000Y-88785000D03*
X127325000Y-90685000D03*
X129200000Y-89735000D03*
G04 #@! TD*
D20*
G04 #@! TO.C,R14*
X172770000Y-64805000D03*
X172770000Y-66455000D03*
G04 #@! TD*
D12*
G04 #@! TO.C,R2*
X155060000Y-86070000D03*
X156710000Y-86070000D03*
G04 #@! TD*
D14*
G04 #@! TO.C,C4*
X167725000Y-128000000D03*
X169275000Y-128000000D03*
G04 #@! TD*
D28*
G04 #@! TO.C,D5*
X160870000Y-66425000D03*
X160870000Y-64850000D03*
G04 #@! TD*
D29*
G04 #@! TO.C,C12*
X158760000Y-94990000D03*
X157210000Y-94990000D03*
G04 #@! TD*
G04 #@! TO.C,C6*
X153365000Y-92540000D03*
X151815000Y-92540000D03*
G04 #@! TD*
D15*
G04 #@! TO.C,D2*
X126160000Y-136850000D03*
X122160000Y-136850000D03*
G04 #@! TD*
D12*
G04 #@! TO.C,R24*
X127035000Y-67905000D03*
X128685000Y-67905000D03*
G04 #@! TD*
D23*
G04 #@! TO.C,C19*
X174040000Y-68392500D03*
X174040000Y-69942500D03*
G04 #@! TD*
D14*
G04 #@! TO.C,C10*
X155000000Y-83360000D03*
X156550000Y-83360000D03*
G04 #@! TD*
D12*
G04 #@! TO.C,R4*
X155190000Y-90640000D03*
X156840000Y-90640000D03*
G04 #@! TD*
D19*
G04 #@! TO.C,Q7*
X127260000Y-63980000D03*
X127260000Y-65880000D03*
X129135000Y-64930000D03*
G04 #@! TD*
D23*
G04 #@! TO.C,C23*
X149520000Y-69475000D03*
X149520000Y-71025000D03*
G04 #@! TD*
D18*
G04 #@! TO.C,C24*
X149550000Y-77455000D03*
X149550000Y-75905000D03*
G04 #@! TD*
D20*
G04 #@! TO.C,R30*
X152860000Y-64805000D03*
X152860000Y-66455000D03*
G04 #@! TD*
D18*
G04 #@! TO.C,C18*
X164740000Y-66415000D03*
X164740000Y-64865000D03*
G04 #@! TD*
D29*
G04 #@! TO.C,C1*
X153345000Y-88040000D03*
X151795000Y-88040000D03*
G04 #@! TD*
D23*
G04 #@! TO.C,C20*
X172080000Y-68392500D03*
X172080000Y-69942500D03*
G04 #@! TD*
D30*
G04 #@! TO.C,U2*
X154230000Y-97760000D03*
X154230000Y-100060000D03*
D31*
X160530000Y-100060000D03*
D30*
X154230000Y-102360000D03*
G04 #@! TD*
D29*
G04 #@! TO.C,C7*
X153250000Y-83360000D03*
X151700000Y-83360000D03*
G04 #@! TD*
D23*
G04 #@! TO.C,C21*
X158880000Y-64850000D03*
X158880000Y-66400000D03*
G04 #@! TD*
G04 #@! TO.C,C16*
X158890000Y-77045000D03*
X158890000Y-78595000D03*
G04 #@! TD*
D24*
G04 #@! TO.C,R12*
X158725000Y-75410000D03*
X157075000Y-75410000D03*
G04 #@! TD*
D20*
G04 #@! TO.C,R28*
X149000000Y-64795000D03*
X149000000Y-66445000D03*
G04 #@! TD*
D12*
G04 #@! TO.C,R21*
X127000000Y-92560000D03*
X128650000Y-92560000D03*
G04 #@! TD*
D14*
G04 #@! TO.C,C26*
X168426000Y-58330000D03*
X169976000Y-58330000D03*
G04 #@! TD*
D32*
G04 #@! TO.C,L1*
X173770000Y-124360000D03*
X173770000Y-114660000D03*
G04 #@! TD*
D17*
G04 #@! TO.C,R26*
X125155000Y-67510000D03*
X125155000Y-65860000D03*
G04 #@! TD*
D23*
G04 #@! TO.C,C15*
X157120000Y-77095000D03*
X157120000Y-78645000D03*
G04 #@! TD*
D14*
G04 #@! TO.C,C25*
X168410000Y-60030000D03*
X169960000Y-60030000D03*
G04 #@! TD*
D12*
G04 #@! TO.C,R23*
X127040000Y-110645000D03*
X128690000Y-110645000D03*
G04 #@! TD*
D20*
G04 #@! TO.C,R13*
X170490000Y-64800000D03*
X170490000Y-66450000D03*
G04 #@! TD*
D18*
G04 #@! TO.C,C9*
X151540000Y-99860000D03*
X151540000Y-98310000D03*
G04 #@! TD*
D33*
G04 #@! TO.C,Q1*
X171510000Y-88645000D03*
X170560000Y-86770000D03*
X172460000Y-86770000D03*
G04 #@! TD*
D14*
G04 #@! TO.C,C2*
X155145000Y-88040000D03*
X156695000Y-88040000D03*
G04 #@! TD*
D17*
G04 #@! TO.C,R9*
X154700000Y-66450000D03*
X154700000Y-64800000D03*
G04 #@! TD*
M02*
