M48
; DRILL file {KiCad 7.0.11-rc3} date Wed Aug 13 16:24:45 2025
; FORMAT={-:-/ absolute / inch / decimal}
; #@! TF.CreationDate,2025-08-13T16:24:45+03:00
; #@! TF.GenerationSoftware,Kicad,Pcbnew,7.0.11-rc3
; #@! TF.FileFunction,Plated,1,2,PTH
FMAT,2
INCH
; #@! TA.AperFunction,Plated,PTH,ViaDrill
T1C0.0118
; #@! TA.AperFunction,Plated,PTH,ViaDrill
T2C0.0157
; #@! TA.AperFunction,Plated,PTH,ComponentDrill
T3C0.0197
; #@! TA.AperFunction,Plated,PTH,ViaDrill
T4C0.0236
; #@! TA.AperFunction,Plated,PTH,ComponentDrill
T5C0.0276
; #@! TA.AperFunction,Plated,PTH,ComponentDrill
T6C0.0315
; #@! TA.AperFunction,Plated,PTH,ComponentDrill
T7C0.0374
; #@! TA.AperFunction,Plated,PTH,ComponentDrill
T8C0.0394
; #@! TA.AperFunction,Plated,PTH,ComponentDrill
T9C0.0433
; #@! TA.AperFunction,Plated,PTH,ComponentDrill
T10C0.0512
; #@! TA.AperFunction,Plated,PTH,ComponentDrill
T11C0.0866
%
G90
G05
T1
X4.4736Y-4.3827
X4.8756Y-4.211
X4.8791Y-3.4362
X4.9634Y-3.5957
X5.0016Y-3.4492
X5.0047Y-4.0776
X5.1169Y-3.4236
X5.1583Y-4.4335
X5.3673Y-3.0039
X5.6213Y-2.6772
X5.7209Y-3.2441
X5.8665Y-2.6559
X5.9028Y-3.3654
X5.9213Y-3.2799
X5.9815Y-2.422
X6.0087Y-2.4524
X6.0181Y-2.6163
X6.0441Y-2.4768
X6.072Y-2.4138
X6.0886Y-2.4512
X6.1516Y-2.6689
X6.1811Y-2.9961
X6.1929Y-3.1445
X6.2173Y-3.5618
X6.2197Y-3.4819
X6.252Y-3.1543
X6.2866Y-2.9976
X6.2978Y-3.0758
X6.3228Y-2.6555
X6.3354Y-3.6756
X6.337Y-2.7969
X6.3417Y-3.4783
X6.3512Y-3.4177
X6.4059Y-2.7323
X6.4071Y-3.0545
X6.4091Y-2.8669
X6.4142Y-3.7913
X6.4157Y-3.2157
X6.4272Y-2.922
X6.4272Y-3.024
X6.4358Y-2.713
X6.4461Y-2.8945
X6.4461Y-2.9937
X6.478Y-3.0634
X6.4783Y-2.6921
X6.5008Y-3.0012
X6.5154Y-3.0539
X6.5528Y-2.9929
X6.5872Y-3.6537
X6.589Y-2.7398
X6.6453Y-3.6646
X6.6843Y-2.7791
X6.6929Y-3.2874
X6.7118Y-2.5264
X6.7744Y-3.1051
X6.8051Y-3.0276
X6.8098Y-3.0811
X6.8189Y-2.7787
X6.8734Y-2.5285
X6.888Y-2.84
X6.913Y-2.9197
X6.9291Y-4.1339
X6.9925Y-4.3217
X7.035Y-4.5126
X7.0673Y-4.7358
T2
X6.2681Y-3.6886
T3
X6.2024Y-2.7353
X6.2772Y-2.7353
T4
X4.4634Y-3.9547
X4.4673Y-3.8504
X4.4685Y-3.4646
X4.4685Y-3.563
X4.4685Y-3.6614
X4.4685Y-3.7598
X4.5079Y-3.3661
X4.5272Y-4.0413
X4.5669Y-3.3071
X4.6169Y-4.1059
X4.6654Y-3.2874
X4.6945Y-5.1846
X4.7441Y-3.2874
X4.7594Y-4.1079
X4.8228Y-3.2874
X4.8819Y-3.0118
X4.9606Y-3.0118
X5.0394Y-2.9724
X5.0984Y-2.9134
X5.1575Y-2.8543
X5.2165Y-2.7953
X5.2559Y-2.7362
X5.3346Y-5.0
X5.3937Y-4.9409
X5.4331Y-4.4882
X5.4724Y-4.8622
X5.5118Y-4.5079
X5.5512Y-4.7835
X5.5709Y-4.5866
X5.5709Y-4.685
X5.9646Y-4.5079
X5.9646Y-4.5866
X5.9646Y-4.6457
X5.9646Y-4.7244
X5.9646Y-4.8031
X5.9646Y-4.8819
X6.0236Y-4.5079
X6.0236Y-4.5866
X6.0236Y-4.6457
X6.0433Y-4.7244
X6.0433Y-4.8031
X6.0433Y-4.8819
X6.0827Y-4.5079
X6.0827Y-4.5866
X6.0827Y-4.6457
X6.1024Y-4.7244
X6.1024Y-4.8031
X6.1024Y-4.8819
X6.1614Y-4.5079
X6.1614Y-4.5866
X6.1614Y-4.6457
X6.1614Y-4.7244
X6.1614Y-4.8031
X6.1614Y-4.8819
X6.2205Y-4.5079
X6.2205Y-4.5866
X6.2205Y-4.6457
X6.2205Y-4.7244
X6.2205Y-4.8031
X6.2205Y-4.8819
X6.6008Y-4.2736
T5
X5.7724Y-3.5776
X5.7724Y-3.8776
T6
X6.035Y-2.7964
X6.035Y-2.9885
T7
X5.8783Y-2.1689
X5.9768Y-2.1689
X6.0752Y-2.1689
X6.3366Y-2.1681
X6.435Y-2.1681
X6.5335Y-2.1681
X6.6319Y-2.1681
T8
X4.8079Y-2.1457
X4.9063Y-2.1457
X5.1594Y-2.1457
X5.2579Y-2.1457
X5.5114Y-2.1472
X5.6098Y-2.1472
X7.0268Y-3.4
X7.0268Y-3.4984
X7.0366Y-2.4329
X7.0366Y-2.5329
X7.0366Y-2.6329
X7.0366Y-2.7329
X7.0366Y-2.8329
X7.0366Y-2.9925
X7.0366Y-3.0925
X7.0366Y-3.1925
T9
X5.2537Y-3.7575
X5.2537Y-3.9575
X5.265Y-3.0976
X5.265Y-3.1976
X5.265Y-3.2976
X5.2685Y-2.4559
X5.2685Y-2.5559
X5.2685Y-2.6559
X5.2821Y-5.0508
X5.2821Y-5.2508
X5.2909Y-4.3874
X5.2909Y-4.4874
X5.2909Y-4.5874
T10
X4.9717Y-3.7315
X4.9717Y-3.9874
X5.0437Y-4.8224
X5.0437Y-5.0783
X5.7012Y-5.3421
X5.9571Y-5.3421
T11
X4.7078Y-3.5386
X4.7078Y-3.9323
X4.7083Y-2.6213
X4.7083Y-3.015
X4.7118Y-4.4492
X4.7118Y-4.8429
M30
