G04 #@! TF.GenerationSoftware,KiCad,Pcbnew,7.0.11-rc3*
G04 #@! TF.CreationDate,2025-08-13T16:24:40+03:00*
G04 #@! TF.ProjectId,Neonest_V_1.3,4e656f6e-6573-4745-9f56-5f312e332e6b,rev?*
G04 #@! TF.SameCoordinates,Original*
G04 #@! TF.FileFunction,Soldermask,Bot*
G04 #@! TF.FilePolarity,Negative*
%FSLAX46Y46*%
G04 Gerber Fmt 4.6, Leading zero omitted, Abs format (unit mm)*
G04 Created by KiCad (PCBNEW 7.0.11-rc3) date 2025-08-13 16:24:40*
%MOMM*%
%LPD*%
G01*
G04 APERTURE LIST*
G04 Aperture macros list*
%AMRoundRect*
0 Rectangle with rounded corners*
0 $1 Rounding radius*
0 $2 $3 $4 $5 $6 $7 $8 $9 X,Y pos of 4 corners*
0 Add a 4 corners polygon primitive as box body*
4,1,4,$2,$3,$4,$5,$6,$7,$8,$9,$2,$3,0*
0 Add four circle primitives for the rounded corners*
1,1,$1+$1,$2,$3*
1,1,$1+$1,$4,$5*
1,1,$1+$1,$6,$7*
1,1,$1+$1,$8,$9*
0 Add four rect primitives between the rounded corners*
20,1,$1+$1,$2,$3,$4,$5,0*
20,1,$1+$1,$4,$5,$6,$7,0*
20,1,$1+$1,$6,$7,$8,$9,0*
20,1,$1+$1,$8,$9,$2,$3,0*%
G04 Aperture macros list end*
%ADD10R,2.250000X2.250000*%
%ADD11C,2.250000*%
%ADD12C,1.400000*%
%ADD13O,1.400000X1.400000*%
%ADD14R,2.000000X1.905000*%
%ADD15O,2.000000X1.905000*%
%ADD16C,4.000000*%
%ADD17R,6.600000X3.300000*%
%ADD18O,6.600000X3.300000*%
%ADD19RoundRect,0.250000X-0.600000X-0.750000X0.600000X-0.750000X0.600000X0.750000X-0.600000X0.750000X0*%
%ADD20O,1.700000X2.000000*%
%ADD21R,1.700000X1.700000*%
%ADD22O,1.700000X1.700000*%
%ADD23RoundRect,0.250000X0.600000X0.725000X-0.600000X0.725000X-0.600000X-0.725000X0.600000X-0.725000X0*%
%ADD24O,1.700000X1.950000*%
%ADD25C,1.000000*%
%ADD26R,2.000000X2.000000*%
%ADD27O,2.000000X2.000000*%
%ADD28C,1.500000*%
%ADD29RoundRect,0.250000X-0.750000X0.600000X-0.750000X-0.600000X0.750000X-0.600000X0.750000X0.600000X0*%
%ADD30O,2.000000X1.700000*%
G04 APERTURE END LIST*
D10*
G04 #@! TO.C,SW3*
X144810000Y-135690000D03*
D11*
X151310000Y-135690000D03*
G04 #@! TD*
D10*
G04 #@! TO.C,SW2*
X128110000Y-122490000D03*
D11*
X128110000Y-128990000D03*
G04 #@! TD*
D10*
G04 #@! TO.C,SW1*
X126280000Y-94780000D03*
D11*
X126280000Y-101280000D03*
G04 #@! TD*
D12*
G04 #@! TO.C,R20*
X146620000Y-90870000D03*
D13*
X146620000Y-98490000D03*
G04 #@! TD*
D14*
G04 #@! TO.C,Q6*
X133820000Y-62380000D03*
D15*
X133820000Y-64920000D03*
X133820000Y-67460000D03*
G04 #@! TD*
D16*
G04 #@! TO.C,H4*
X109000000Y-136000000D03*
G04 #@! TD*
D17*
G04 #@! TO.C,J2*
X119680000Y-113010000D03*
D18*
X119680000Y-123010000D03*
G04 #@! TD*
D19*
G04 #@! TO.C,J11*
X131050000Y-54500000D03*
D20*
X133550000Y-54500000D03*
G04 #@! TD*
D14*
G04 #@! TO.C,Q3*
X133730000Y-78680000D03*
D15*
X133730000Y-81220000D03*
X133730000Y-83760000D03*
G04 #@! TD*
D21*
G04 #@! TO.C,J6*
X178730000Y-61795000D03*
D22*
X178730000Y-64335000D03*
X178730000Y-66875000D03*
X178730000Y-69415000D03*
X178730000Y-71955000D03*
G04 #@! TD*
D17*
G04 #@! TO.C,J9*
X119590000Y-66580000D03*
D18*
X119590000Y-76580000D03*
G04 #@! TD*
D16*
G04 #@! TO.C,H3*
X177300000Y-135700000D03*
G04 #@! TD*
D23*
G04 #@! TO.C,J8*
X168450000Y-55070000D03*
D24*
X165950000Y-55070000D03*
X163450000Y-55070000D03*
X160950000Y-55070000D03*
G04 #@! TD*
D25*
G04 #@! TO.C,Y1*
X157540000Y-69477500D03*
X159440000Y-69477500D03*
G04 #@! TD*
D19*
G04 #@! TO.C,J10*
X122120000Y-54500000D03*
D20*
X124620000Y-54500000D03*
G04 #@! TD*
D26*
G04 #@! TO.C,D8*
X133445000Y-95440000D03*
D27*
X133445000Y-100520000D03*
G04 #@! TD*
D28*
G04 #@! TO.C,Y2*
X153290000Y-71027500D03*
X153290000Y-75907500D03*
G04 #@! TD*
D14*
G04 #@! TO.C,Q5*
X134390000Y-111440000D03*
D15*
X134390000Y-113980000D03*
X134390000Y-116520000D03*
G04 #@! TD*
D23*
G04 #@! TO.C,J4*
X154310000Y-55090000D03*
D24*
X151810000Y-55090000D03*
X149310000Y-55090000D03*
G04 #@! TD*
D17*
G04 #@! TO.C,J1*
X119577500Y-89880000D03*
D18*
X119577500Y-99880000D03*
G04 #@! TD*
D22*
G04 #@! TO.C,J7*
X178730000Y-76010000D03*
X178730000Y-78550000D03*
D21*
X178730000Y-81090000D03*
G04 #@! TD*
D19*
G04 #@! TO.C,J12*
X139990000Y-54540000D03*
D20*
X142490000Y-54540000D03*
G04 #@! TD*
D16*
G04 #@! TO.C,H1*
X177700000Y-54300000D03*
G04 #@! TD*
G04 #@! TO.C,H2*
X109000000Y-54000000D03*
G04 #@! TD*
D29*
G04 #@! TO.C,J5*
X178480000Y-86360000D03*
D30*
X178480000Y-88860000D03*
G04 #@! TD*
D26*
G04 #@! TO.C,D7*
X134165000Y-128290000D03*
D27*
X134165000Y-133370000D03*
G04 #@! TD*
M02*
