G04 #@! TF.GenerationSoftware,KiCad,Pcbnew,7.0.11-rc3*
G04 #@! TF.CreationDate,2025-08-13T16:24:40+03:00*
G04 #@! TF.ProjectId,Neonest_V_1.3,4e656f6e-6573-4745-9f56-5f312e332e6b,rev?*
G04 #@! TF.SameCoordinates,Original*
G04 #@! TF.FileFunction,Legend,Bot*
G04 #@! TF.FilePolarity,Positive*
%FSLAX46Y46*%
G04 Gerber Fmt 4.6, Leading zero omitted, Abs format (unit mm)*
G04 Created by KiCad (PCBNEW 7.0.11-rc3) date 2025-08-13 16:24:40*
%MOMM*%
%LPD*%
G01*
G04 APERTURE LIST*
%ADD10C,0.100000*%
G04 APERTURE END LIST*
D10*
X176072306Y-75540038D02*
X176167544Y-75492419D01*
X176167544Y-75492419D02*
X176310401Y-75492419D01*
X176310401Y-75492419D02*
X176453258Y-75540038D01*
X176453258Y-75540038D02*
X176548496Y-75635276D01*
X176548496Y-75635276D02*
X176596115Y-75730514D01*
X176596115Y-75730514D02*
X176643734Y-75920990D01*
X176643734Y-75920990D02*
X176643734Y-76063847D01*
X176643734Y-76063847D02*
X176596115Y-76254323D01*
X176596115Y-76254323D02*
X176548496Y-76349561D01*
X176548496Y-76349561D02*
X176453258Y-76444800D01*
X176453258Y-76444800D02*
X176310401Y-76492419D01*
X176310401Y-76492419D02*
X176215163Y-76492419D01*
X176215163Y-76492419D02*
X176072306Y-76444800D01*
X176072306Y-76444800D02*
X176024687Y-76397180D01*
X176024687Y-76397180D02*
X176024687Y-76063847D01*
X176024687Y-76063847D02*
X176215163Y-76063847D01*
X175596115Y-75825752D02*
X175596115Y-76492419D01*
X175596115Y-75920990D02*
X175548496Y-75873371D01*
X175548496Y-75873371D02*
X175453258Y-75825752D01*
X175453258Y-75825752D02*
X175310401Y-75825752D01*
X175310401Y-75825752D02*
X175215163Y-75873371D01*
X175215163Y-75873371D02*
X175167544Y-75968609D01*
X175167544Y-75968609D02*
X175167544Y-76492419D01*
X174262782Y-76492419D02*
X174262782Y-75492419D01*
X174262782Y-76444800D02*
X174358020Y-76492419D01*
X174358020Y-76492419D02*
X174548496Y-76492419D01*
X174548496Y-76492419D02*
X174643734Y-76444800D01*
X174643734Y-76444800D02*
X174691353Y-76397180D01*
X174691353Y-76397180D02*
X174738972Y-76301942D01*
X174738972Y-76301942D02*
X174738972Y-76016228D01*
X174738972Y-76016228D02*
X174691353Y-75920990D01*
X174691353Y-75920990D02*
X174643734Y-75873371D01*
X174643734Y-75873371D02*
X174548496Y-75825752D01*
X174548496Y-75825752D02*
X174358020Y-75825752D01*
X174358020Y-75825752D02*
X174262782Y-75873371D01*
X176818972Y-80322419D02*
X176247544Y-80322419D01*
X176533258Y-81322419D02*
X176533258Y-80322419D01*
X176009448Y-81322419D02*
X175485639Y-80655752D01*
X176009448Y-80655752D02*
X175485639Y-81322419D01*
X176044687Y-78822419D02*
X176378020Y-78346228D01*
X176616115Y-78822419D02*
X176616115Y-77822419D01*
X176616115Y-77822419D02*
X176235163Y-77822419D01*
X176235163Y-77822419D02*
X176139925Y-77870038D01*
X176139925Y-77870038D02*
X176092306Y-77917657D01*
X176092306Y-77917657D02*
X176044687Y-78012895D01*
X176044687Y-78012895D02*
X176044687Y-78155752D01*
X176044687Y-78155752D02*
X176092306Y-78250990D01*
X176092306Y-78250990D02*
X176139925Y-78298609D01*
X176139925Y-78298609D02*
X176235163Y-78346228D01*
X176235163Y-78346228D02*
X176616115Y-78346228D01*
X175711353Y-78822419D02*
X175187544Y-78155752D01*
X175711353Y-78155752D02*
X175187544Y-78822419D01*
X177243734Y-69944800D02*
X177148496Y-69992419D01*
X177148496Y-69992419D02*
X176958020Y-69992419D01*
X176958020Y-69992419D02*
X176862782Y-69944800D01*
X176862782Y-69944800D02*
X176815163Y-69849561D01*
X176815163Y-69849561D02*
X176815163Y-69801942D01*
X176815163Y-69801942D02*
X176862782Y-69706704D01*
X176862782Y-69706704D02*
X176958020Y-69659085D01*
X176958020Y-69659085D02*
X177100877Y-69659085D01*
X177100877Y-69659085D02*
X177196115Y-69611466D01*
X177196115Y-69611466D02*
X177243734Y-69516228D01*
X177243734Y-69516228D02*
X177243734Y-69468609D01*
X177243734Y-69468609D02*
X177196115Y-69373371D01*
X177196115Y-69373371D02*
X177100877Y-69325752D01*
X177100877Y-69325752D02*
X176958020Y-69325752D01*
X176958020Y-69325752D02*
X176862782Y-69373371D01*
X176481829Y-69325752D02*
X176291353Y-69992419D01*
X176291353Y-69992419D02*
X176100877Y-69516228D01*
X176100877Y-69516228D02*
X175910401Y-69992419D01*
X175910401Y-69992419D02*
X175719925Y-69325752D01*
X174910401Y-69992419D02*
X174910401Y-68992419D01*
X174910401Y-69944800D02*
X175005639Y-69992419D01*
X175005639Y-69992419D02*
X175196115Y-69992419D01*
X175196115Y-69992419D02*
X175291353Y-69944800D01*
X175291353Y-69944800D02*
X175338972Y-69897180D01*
X175338972Y-69897180D02*
X175386591Y-69801942D01*
X175386591Y-69801942D02*
X175386591Y-69516228D01*
X175386591Y-69516228D02*
X175338972Y-69420990D01*
X175338972Y-69420990D02*
X175291353Y-69373371D01*
X175291353Y-69373371D02*
X175196115Y-69325752D01*
X175196115Y-69325752D02*
X175005639Y-69325752D01*
X175005639Y-69325752D02*
X174910401Y-69373371D01*
X174434210Y-69992419D02*
X174434210Y-69325752D01*
X174434210Y-68992419D02*
X174481829Y-69040038D01*
X174481829Y-69040038D02*
X174434210Y-69087657D01*
X174434210Y-69087657D02*
X174386591Y-69040038D01*
X174386591Y-69040038D02*
X174434210Y-68992419D01*
X174434210Y-68992419D02*
X174434210Y-69087657D01*
X173815163Y-69992419D02*
X173910401Y-69944800D01*
X173910401Y-69944800D02*
X173958020Y-69897180D01*
X173958020Y-69897180D02*
X174005639Y-69801942D01*
X174005639Y-69801942D02*
X174005639Y-69516228D01*
X174005639Y-69516228D02*
X173958020Y-69420990D01*
X173958020Y-69420990D02*
X173910401Y-69373371D01*
X173910401Y-69373371D02*
X173815163Y-69325752D01*
X173815163Y-69325752D02*
X173672306Y-69325752D01*
X173672306Y-69325752D02*
X173577068Y-69373371D01*
X173577068Y-69373371D02*
X173529449Y-69420990D01*
X173529449Y-69420990D02*
X173481830Y-69516228D01*
X173481830Y-69516228D02*
X173481830Y-69801942D01*
X173481830Y-69801942D02*
X173529449Y-69897180D01*
X173529449Y-69897180D02*
X173577068Y-69944800D01*
X173577068Y-69944800D02*
X173672306Y-69992419D01*
X173672306Y-69992419D02*
X173815163Y-69992419D01*
X176767544Y-66495752D02*
X176767544Y-67305276D01*
X176767544Y-67305276D02*
X176815163Y-67400514D01*
X176815163Y-67400514D02*
X176862782Y-67448133D01*
X176862782Y-67448133D02*
X176958020Y-67495752D01*
X176958020Y-67495752D02*
X177100877Y-67495752D01*
X177100877Y-67495752D02*
X177196115Y-67448133D01*
X176767544Y-67114800D02*
X176862782Y-67162419D01*
X176862782Y-67162419D02*
X177053258Y-67162419D01*
X177053258Y-67162419D02*
X177148496Y-67114800D01*
X177148496Y-67114800D02*
X177196115Y-67067180D01*
X177196115Y-67067180D02*
X177243734Y-66971942D01*
X177243734Y-66971942D02*
X177243734Y-66686228D01*
X177243734Y-66686228D02*
X177196115Y-66590990D01*
X177196115Y-66590990D02*
X177148496Y-66543371D01*
X177148496Y-66543371D02*
X177053258Y-66495752D01*
X177053258Y-66495752D02*
X176862782Y-66495752D01*
X176862782Y-66495752D02*
X176767544Y-66543371D01*
X176291353Y-66495752D02*
X176291353Y-67162419D01*
X176291353Y-66590990D02*
X176243734Y-66543371D01*
X176243734Y-66543371D02*
X176148496Y-66495752D01*
X176148496Y-66495752D02*
X176005639Y-66495752D01*
X176005639Y-66495752D02*
X175910401Y-66543371D01*
X175910401Y-66543371D02*
X175862782Y-66638609D01*
X175862782Y-66638609D02*
X175862782Y-67162419D01*
X174958020Y-67162419D02*
X174958020Y-66162419D01*
X174958020Y-67114800D02*
X175053258Y-67162419D01*
X175053258Y-67162419D02*
X175243734Y-67162419D01*
X175243734Y-67162419D02*
X175338972Y-67114800D01*
X175338972Y-67114800D02*
X175386591Y-67067180D01*
X175386591Y-67067180D02*
X175434210Y-66971942D01*
X175434210Y-66971942D02*
X175434210Y-66686228D01*
X175434210Y-66686228D02*
X175386591Y-66590990D01*
X175386591Y-66590990D02*
X175338972Y-66543371D01*
X175338972Y-66543371D02*
X175243734Y-66495752D01*
X175243734Y-66495752D02*
X175053258Y-66495752D01*
X175053258Y-66495752D02*
X174958020Y-66543371D01*
X177236115Y-71625752D02*
X177236115Y-72292419D01*
X177236115Y-71720990D02*
X177188496Y-71673371D01*
X177188496Y-71673371D02*
X177093258Y-71625752D01*
X177093258Y-71625752D02*
X176950401Y-71625752D01*
X176950401Y-71625752D02*
X176855163Y-71673371D01*
X176855163Y-71673371D02*
X176807544Y-71768609D01*
X176807544Y-71768609D02*
X176807544Y-72292419D01*
X176331353Y-72292419D02*
X176331353Y-71625752D01*
X176331353Y-71816228D02*
X176283734Y-71720990D01*
X176283734Y-71720990D02*
X176236115Y-71673371D01*
X176236115Y-71673371D02*
X176140877Y-71625752D01*
X176140877Y-71625752D02*
X176045639Y-71625752D01*
X175759924Y-72244800D02*
X175664686Y-72292419D01*
X175664686Y-72292419D02*
X175474210Y-72292419D01*
X175474210Y-72292419D02*
X175378972Y-72244800D01*
X175378972Y-72244800D02*
X175331353Y-72149561D01*
X175331353Y-72149561D02*
X175331353Y-72101942D01*
X175331353Y-72101942D02*
X175378972Y-72006704D01*
X175378972Y-72006704D02*
X175474210Y-71959085D01*
X175474210Y-71959085D02*
X175617067Y-71959085D01*
X175617067Y-71959085D02*
X175712305Y-71911466D01*
X175712305Y-71911466D02*
X175759924Y-71816228D01*
X175759924Y-71816228D02*
X175759924Y-71768609D01*
X175759924Y-71768609D02*
X175712305Y-71673371D01*
X175712305Y-71673371D02*
X175617067Y-71625752D01*
X175617067Y-71625752D02*
X175474210Y-71625752D01*
X175474210Y-71625752D02*
X175378972Y-71673371D01*
X175045638Y-71625752D02*
X174664686Y-71625752D01*
X174902781Y-71292419D02*
X174902781Y-72149561D01*
X174902781Y-72149561D02*
X174855162Y-72244800D01*
X174855162Y-72244800D02*
X174759924Y-72292419D01*
X174759924Y-72292419D02*
X174664686Y-72292419D01*
X177241353Y-61182419D02*
X176622306Y-61182419D01*
X176622306Y-61182419D02*
X176955639Y-61563371D01*
X176955639Y-61563371D02*
X176812782Y-61563371D01*
X176812782Y-61563371D02*
X176717544Y-61610990D01*
X176717544Y-61610990D02*
X176669925Y-61658609D01*
X176669925Y-61658609D02*
X176622306Y-61753847D01*
X176622306Y-61753847D02*
X176622306Y-61991942D01*
X176622306Y-61991942D02*
X176669925Y-62087180D01*
X176669925Y-62087180D02*
X176717544Y-62134800D01*
X176717544Y-62134800D02*
X176812782Y-62182419D01*
X176812782Y-62182419D02*
X177098496Y-62182419D01*
X177098496Y-62182419D02*
X177193734Y-62134800D01*
X177193734Y-62134800D02*
X177241353Y-62087180D01*
X176193734Y-62087180D02*
X176146115Y-62134800D01*
X176146115Y-62134800D02*
X176193734Y-62182419D01*
X176193734Y-62182419D02*
X176241353Y-62134800D01*
X176241353Y-62134800D02*
X176193734Y-62087180D01*
X176193734Y-62087180D02*
X176193734Y-62182419D01*
X175812782Y-61182419D02*
X175193735Y-61182419D01*
X175193735Y-61182419D02*
X175527068Y-61563371D01*
X175527068Y-61563371D02*
X175384211Y-61563371D01*
X175384211Y-61563371D02*
X175288973Y-61610990D01*
X175288973Y-61610990D02*
X175241354Y-61658609D01*
X175241354Y-61658609D02*
X175193735Y-61753847D01*
X175193735Y-61753847D02*
X175193735Y-61991942D01*
X175193735Y-61991942D02*
X175241354Y-62087180D01*
X175241354Y-62087180D02*
X175288973Y-62134800D01*
X175288973Y-62134800D02*
X175384211Y-62182419D01*
X175384211Y-62182419D02*
X175669925Y-62182419D01*
X175669925Y-62182419D02*
X175765163Y-62134800D01*
X175765163Y-62134800D02*
X175812782Y-62087180D01*
X174860401Y-61515752D02*
X174622306Y-62182419D01*
X174622306Y-62182419D02*
X174384211Y-61515752D01*
X177203734Y-64664800D02*
X177108496Y-64712419D01*
X177108496Y-64712419D02*
X176918020Y-64712419D01*
X176918020Y-64712419D02*
X176822782Y-64664800D01*
X176822782Y-64664800D02*
X176775163Y-64569561D01*
X176775163Y-64569561D02*
X176775163Y-64521942D01*
X176775163Y-64521942D02*
X176822782Y-64426704D01*
X176822782Y-64426704D02*
X176918020Y-64379085D01*
X176918020Y-64379085D02*
X177060877Y-64379085D01*
X177060877Y-64379085D02*
X177156115Y-64331466D01*
X177156115Y-64331466D02*
X177203734Y-64236228D01*
X177203734Y-64236228D02*
X177203734Y-64188609D01*
X177203734Y-64188609D02*
X177156115Y-64093371D01*
X177156115Y-64093371D02*
X177060877Y-64045752D01*
X177060877Y-64045752D02*
X176918020Y-64045752D01*
X176918020Y-64045752D02*
X176822782Y-64093371D01*
X176441829Y-64045752D02*
X176251353Y-64712419D01*
X176251353Y-64712419D02*
X176060877Y-64236228D01*
X176060877Y-64236228D02*
X175870401Y-64712419D01*
X175870401Y-64712419D02*
X175679925Y-64045752D01*
X174870401Y-64664800D02*
X174965639Y-64712419D01*
X174965639Y-64712419D02*
X175156115Y-64712419D01*
X175156115Y-64712419D02*
X175251353Y-64664800D01*
X175251353Y-64664800D02*
X175298972Y-64617180D01*
X175298972Y-64617180D02*
X175346591Y-64521942D01*
X175346591Y-64521942D02*
X175346591Y-64236228D01*
X175346591Y-64236228D02*
X175298972Y-64140990D01*
X175298972Y-64140990D02*
X175251353Y-64093371D01*
X175251353Y-64093371D02*
X175156115Y-64045752D01*
X175156115Y-64045752D02*
X174965639Y-64045752D01*
X174965639Y-64045752D02*
X174870401Y-64093371D01*
X174298972Y-64712419D02*
X174394210Y-64664800D01*
X174394210Y-64664800D02*
X174441829Y-64569561D01*
X174441829Y-64569561D02*
X174441829Y-63712419D01*
X173918019Y-64712419D02*
X173918019Y-63712419D01*
X173822781Y-64331466D02*
X173537067Y-64712419D01*
X173537067Y-64045752D02*
X173918019Y-64426704D01*
M02*
